<svg width="1913" height="407" viewBox="0 0 1913 407" fill="none" xmlns="http://www.w3.org/2000/svg">
<path fill-rule="evenodd" clip-rule="evenodd" d="M-7 180.889L25 218.574C57 256.259 121 331.63 185 309.019C249 286.407 313 165.815 377 128.13C441 90.4444 505 135.667 569 158.278C633 180.889 697 180.889 761 173.352C825 165.815 889 150.741 953 165.815C1017 180.889 1081 226.111 1145 271.333C1209 316.556 1273 361.778 1337 324.093C1401 286.407 1465 165.815 1529 120.593C1593 75.3704 1657 105.519 1721 97.9815C1785 90.4444 1849 45.2222 1881 22.6111L1913 0V407H1881C1849 407 1785 407 1721 407C1657 407 1593 407 1529 407C1465 407 1401 407 1337 407C1273 407 1209 407 1145 407C1081 407 1017 407 953 407C889 407 825 407 761 407C697 407 633 407 569 407C505 407 441 407 377 407C313 407 249 407 185 407C121 407 57 407 25 407H-7V180.889Z" fill="#161616"/>
</svg>
